# xmcd CD database file
#
# Track frame offsets:
#	150
#	12372
#	27080
#	42855
#	66345
#	93234
#	108324
#	120351
#	140857
#	159162
#	169428
#	198324
#	221752
#	241025
#	258723
#	278005
#
# Disc length: 4412 seconds
#
# Revision: 0
# Processed by: cddbd v1.5.1PL0 Copyright (c) Steve Scherf et al.
# Submitted via: CDex 1.51
#
DISCID=de113a10
DTITLE=Louis Armstrong - Meets Oscar Peterson
DYEAR=1957
DGENRE=Jazz
TTITLE0=That Old Feeling
TTITLE1=Let's Fall in Love
TTITLE2=I'll Never Be The Same
TTITLE3=Blues in the Night
TTITLE4=How Long Has This Been Going On
TTITLE5=I Was Doing All Right
TTITLE6=What's New
TTITLE7=Moon Song
TTITLE8=Just One of Those Things
TTITLE9=There's No You
TTITLE10=You Go To My Head
TTITLE11=Sweet Lorraine
TTITLE12=I Get a Kick Out of You
TTITLE13=Makin' Whoopee
TTITLE14=Willow Weep for Me
TTITLE15=Let's Do It (Let's Fall in Love)
EXTD=YEAR: 1957
EXTT0=
EXTT1=
EXTT2=
EXTT3=
EXTT4=
EXTT5=
EXTT6=
EXTT7=
EXTT8=
EXTT9=
EXTT10=
EXTT11=
EXTT12=
EXTT13=
EXTT14=
EXTT15=
PLAYORDER=
